<svg width="160" height="160" viewBox="0 0 160 160" fill="none" xmlns="http://www.w3.org/2000/svg">
<rect width="160" height="160" rx="30" fill="#017E2D"/>
<path d="M27.656 88.22C25.632 88.22 24.0627 87.7067 22.948 86.68C21.848 85.6387 21.2613 84.1647 21.188 82.258C21.1733 81.862 21.166 81.2167 21.166 80.322C21.166 79.4127 21.1733 78.7527 21.188 78.342C21.2613 76.4647 21.8553 75.0053 22.97 73.964C24.0847 72.908 25.6467 72.38 27.656 72.38C28.9613 72.38 30.098 72.6073 31.066 73.062C32.034 73.502 32.782 74.1107 33.31 74.888C33.8527 75.6653 34.1387 76.538 34.168 77.506V77.55C34.168 77.6673 34.1167 77.77 34.014 77.858C33.926 77.9313 33.8233 77.968 33.706 77.968H31.572C31.396 77.968 31.264 77.9313 31.176 77.858C31.088 77.77 31.0147 77.6233 30.956 77.418C30.736 76.5087 30.3547 75.8707 29.812 75.504C29.2693 75.1227 28.5507 74.932 27.656 74.932C25.5587 74.932 24.466 76.1053 24.378 78.452C24.3633 78.848 24.356 79.4567 24.356 80.278C24.356 81.0993 24.3633 81.7227 24.378 82.148C24.466 84.4947 25.5587 85.668 27.656 85.668C28.536 85.668 29.2473 85.4847 29.79 85.118C30.3473 84.7367 30.736 84.0913 30.956 83.182C31.0147 82.9767 31.088 82.8373 31.176 82.764C31.264 82.676 31.396 82.632 31.572 82.632H33.706C33.838 82.632 33.948 82.676 34.036 82.764C34.1387 82.852 34.1827 82.962 34.168 83.094C34.1387 84.062 33.8527 84.9347 33.31 85.712C32.782 86.4893 32.034 87.1053 31.066 87.56C30.098 88 28.9613 88.22 27.656 88.22ZM42.1445 88.22C40.8245 88.22 39.6952 88.022 38.7565 87.626C37.8179 87.23 37.1065 86.7093 36.6225 86.064C36.1385 85.4187 35.8819 84.7147 35.8525 83.952C35.8525 83.8347 35.8965 83.732 35.9845 83.644C36.0725 83.5413 36.1825 83.49 36.3145 83.49H38.3165C38.4779 83.49 38.6099 83.5267 38.7125 83.6C38.8152 83.6733 38.9105 83.776 38.9985 83.908C39.1452 84.4067 39.4752 84.8247 39.9885 85.162C40.5165 85.4993 41.2352 85.668 42.1445 85.668C43.1712 85.668 43.9412 85.4993 44.4545 85.162C44.9825 84.81 45.2465 84.3333 45.2465 83.732C45.2465 83.336 45.1145 83.006 44.8505 82.742C44.5865 82.478 44.1832 82.2507 43.6405 82.06C43.1125 81.8547 42.3205 81.6127 41.2645 81.334C39.5339 80.9233 38.2652 80.3807 37.4585 79.706C36.6519 79.0313 36.2485 78.0633 36.2485 76.802C36.2485 75.9513 36.4832 75.196 36.9525 74.536C37.4219 73.8613 38.0892 73.3333 38.9545 72.952C39.8345 72.5707 40.8539 72.38 42.0125 72.38C43.2299 72.38 44.2785 72.5927 45.1585 73.018C46.0532 73.4433 46.7279 73.9787 47.1825 74.624C47.6519 75.2547 47.9012 75.8853 47.9305 76.516C47.9305 76.6333 47.8865 76.7433 47.7985 76.846C47.7105 76.934 47.6005 76.978 47.4685 76.978H45.3785C45.0559 76.978 44.8359 76.846 44.7185 76.582C44.6452 76.1127 44.3592 75.724 43.8605 75.416C43.3619 75.0933 42.7459 74.932 42.0125 74.932C41.2059 74.932 40.5679 75.086 40.0985 75.394C39.6439 75.702 39.4165 76.1493 39.4165 76.736C39.4165 77.132 39.5339 77.462 39.7685 77.726C40.0032 77.99 40.3699 78.2247 40.8685 78.43C41.3672 78.6207 42.0932 78.8407 43.0465 79.09C44.3519 79.3833 45.3859 79.7133 46.1485 80.08C46.9259 80.4467 47.4979 80.9087 47.8645 81.466C48.2312 82.0233 48.4145 82.7347 48.4145 83.6C48.4145 84.5533 48.1505 85.382 47.6225 86.086C47.1092 86.7753 46.3759 87.3033 45.4225 87.67C44.4839 88.0367 43.3912 88.22 42.1445 88.22ZM54.8642 88C54.4242 88 54.1382 87.7947 54.0062 87.384L49.2982 73.26C49.2835 73.216 49.2762 73.15 49.2762 73.062C49.2762 72.93 49.3202 72.82 49.4082 72.732C49.4962 72.644 49.6062 72.6 49.7382 72.6H51.6962C51.8868 72.6 52.0408 72.6513 52.1582 72.754C52.2755 72.8567 52.3562 72.9667 52.4002 73.084L56.0742 84.348L59.7702 73.084C59.7995 72.9667 59.8728 72.8567 59.9902 72.754C60.1075 72.6513 60.2615 72.6 60.4522 72.6H62.4322C62.5495 72.6 62.6522 72.644 62.7402 72.732C62.8428 72.82 62.8942 72.93 62.8942 73.062L62.8502 73.26L58.1642 87.384C58.0175 87.7947 57.7315 88 57.3062 88H54.8642ZM68.9216 89.848C68.8043 89.848 68.7016 89.804 68.6136 89.716C68.5256 89.628 68.4816 89.518 68.4816 89.386C68.4816 89.298 68.4963 89.2173 68.5256 89.144L76.0056 71.17C76.0643 71.0527 76.1523 70.95 76.2696 70.862C76.387 70.7593 76.5336 70.708 76.7096 70.708H78.1396C78.2716 70.708 78.3816 70.752 78.4696 70.84C78.5576 70.928 78.6016 71.038 78.6016 71.17C78.6016 71.258 78.587 71.3387 78.5576 71.412L71.0336 89.386C70.9896 89.5033 70.909 89.606 70.7916 89.694C70.689 89.7967 70.5423 89.848 70.3516 89.848H68.9216ZM84.9669 88C84.8495 88 84.7395 87.956 84.6369 87.868C84.5489 87.78 84.5049 87.67 84.5049 87.538C84.5049 87.4793 84.5342 87.3913 84.5929 87.274L89.4989 80.146L84.9009 73.326C84.8422 73.238 84.8129 73.15 84.8129 73.062C84.8129 72.93 84.8569 72.82 84.9449 72.732C85.0475 72.644 85.1575 72.6 85.2749 72.6H87.5849C87.8489 72.6 88.0762 72.7393 88.2669 73.018L91.4789 77.726L94.7129 73.018C94.8742 72.7393 95.1015 72.6 95.3949 72.6H97.5729C97.6902 72.6 97.7929 72.644 97.8809 72.732C97.9835 72.82 98.0349 72.93 98.0349 73.062C98.0349 73.1207 98.0055 73.2087 97.9469 73.326L93.3489 80.146L98.2769 87.274C98.3209 87.362 98.3429 87.45 98.3429 87.538C98.3429 87.67 98.2989 87.78 98.2109 87.868C98.1229 87.956 98.0129 88 97.8809 88H95.5269C95.2629 88 95.0355 87.868 94.8449 87.604L91.3689 82.654L87.9369 87.604C87.7462 87.868 87.5189 88 87.2549 88H84.9669ZM100.963 88C100.816 88 100.691 87.9487 100.589 87.846C100.486 87.7433 100.435 87.6187 100.435 87.472V73.128C100.435 72.9667 100.486 72.842 100.589 72.754C100.691 72.6513 100.816 72.6 100.963 72.6H103.031C103.192 72.6 103.317 72.6513 103.405 72.754C103.507 72.842 103.559 72.9667 103.559 73.128V85.36H110.533C110.694 85.36 110.826 85.4113 110.929 85.514C111.031 85.6167 111.083 85.7413 111.083 85.888V87.472C111.083 87.6187 111.031 87.7433 110.929 87.846C110.826 87.9487 110.694 88 110.533 88H100.963ZM118.586 88.22C117.266 88.22 116.137 88.022 115.198 87.626C114.259 87.23 113.548 86.7093 113.064 86.064C112.58 85.4187 112.323 84.7147 112.294 83.952C112.294 83.8347 112.338 83.732 112.426 83.644C112.514 83.5413 112.624 83.49 112.756 83.49H114.758C114.919 83.49 115.051 83.5267 115.154 83.6C115.257 83.6733 115.352 83.776 115.44 83.908C115.587 84.4067 115.917 84.8247 116.43 85.162C116.958 85.4993 117.677 85.668 118.586 85.668C119.613 85.668 120.383 85.4993 120.896 85.162C121.424 84.81 121.688 84.3333 121.688 83.732C121.688 83.336 121.556 83.006 121.292 82.742C121.028 82.478 120.625 82.2507 120.082 82.06C119.554 81.8547 118.762 81.6127 117.706 81.334C115.975 80.9233 114.707 80.3807 113.9 79.706C113.093 79.0313 112.69 78.0633 112.69 76.802C112.69 75.9513 112.925 75.196 113.394 74.536C113.863 73.8613 114.531 73.3333 115.396 72.952C116.276 72.5707 117.295 72.38 118.454 72.38C119.671 72.38 120.72 72.5927 121.6 73.018C122.495 73.4433 123.169 73.9787 123.624 74.624C124.093 75.2547 124.343 75.8853 124.372 76.516C124.372 76.6333 124.328 76.7433 124.24 76.846C124.152 76.934 124.042 76.978 123.91 76.978H121.82C121.497 76.978 121.277 76.846 121.16 76.582C121.087 76.1127 120.801 75.724 120.302 75.416C119.803 75.0933 119.187 74.932 118.454 74.932C117.647 74.932 117.009 75.086 116.54 75.394C116.085 75.702 115.858 76.1493 115.858 76.736C115.858 77.132 115.975 77.462 116.21 77.726C116.445 77.99 116.811 78.2247 117.31 78.43C117.809 78.6207 118.535 78.8407 119.488 79.09C120.793 79.3833 121.827 79.7133 122.59 80.08C123.367 80.4467 123.939 80.9087 124.306 81.466C124.673 82.0233 124.856 82.7347 124.856 83.6C124.856 84.5533 124.592 85.382 124.064 86.086C123.551 86.7753 122.817 87.3033 121.864 87.67C120.925 88.0367 119.833 88.22 118.586 88.22ZM126.066 88C125.949 88 125.839 87.956 125.736 87.868C125.648 87.78 125.604 87.67 125.604 87.538C125.604 87.4793 125.634 87.3913 125.692 87.274L130.598 80.146L126 73.326C125.942 73.238 125.912 73.15 125.912 73.062C125.912 72.93 125.956 72.82 126.044 72.732C126.147 72.644 126.257 72.6 126.374 72.6H128.684C128.948 72.6 129.176 72.7393 129.366 73.018L132.578 77.726L135.812 73.018C135.974 72.7393 136.201 72.6 136.494 72.6H138.672C138.79 72.6 138.892 72.644 138.98 72.732C139.083 72.82 139.134 72.93 139.134 73.062C139.134 73.1207 139.105 73.2087 139.046 73.326L134.448 80.146L139.376 87.274C139.42 87.362 139.442 87.45 139.442 87.538C139.442 87.67 139.398 87.78 139.31 87.868C139.222 87.956 139.112 88 138.98 88H136.626C136.362 88 136.135 87.868 135.944 87.604L132.468 82.654L129.036 87.604C128.846 87.868 128.618 88 128.354 88H126.066Z" fill="white"/>
</svg>
